PathFileType	4	(X/Y/Z)	/Users/itak/Documents/Research/Walk-IL/dataset/trc/00021_00004.trc
DataRate	CameraRate	NumFrames	NumMarkers	Units	OrigDataRate	OrigDataStartFrame	OrigNumFrames
100.000000	100.000000	4	53	mm	100.000000	196	785
Frame#	Time	RPSI			LPSI			L3			STRN			T10			C7			CLAV			RBAK			LBAK			LSHO			LUPA			LAEL			LAOL			LWTS			LWPS			LFRA			LIFD			LHPS			LHTS			RSHO			RUPA			RAEL			RAOL			RWTS			RWPS			RFRA			RIFD			RHTS			RHPS			RBHD			LFHD			RFHD			LBHD			LHIP			RHIP			RASI			LASI			LKNE			LTHI			LANK			LTIP			LTOE			LMT1			LMT5			LHEE			RKNE			RTHI			RANK			RTIP			RTOE			RMT1			RMT5			RHEE			
		X1	Y1	Z1	X2	Y2	Z2	X3	Y3	Z3	X4	Y4	Z4	X5	Y5	Z5	X6	Y6	Z6	X7	Y7	Z7	X8	Y8	Z8	X9	Y9	Z9	X10	Y10	Z10	X11	Y11	Z11	X12	Y12	Z12	X13	Y13	Z13	X14	Y14	Z14	X15	Y15	Z15	X16	Y16	Z16	X17	Y17	Z17	X18	Y18	Z18	X19	Y19	Z19	X20	Y20	Z20	X21	Y21	Z21	X22	Y22	Z22	X23	Y23	Z23	X24	Y24	Z24	X25	Y25	Z25	X26	Y26	Z26	X27	Y27	Z27	X28	Y28	Z28	X29	Y29	Z29	X30	Y30	Z30	X31	Y31	Z31	X32	Y32	Z32	X33	Y33	Z33	X34	Y34	Z34	X35	Y35	Z35	X36	Y36	Z36	X37	Y37	Z37	X38	Y38	Z38	X39	Y39	Z39	X40	Y40	Z40	X41	Y41	Z41	X42	Y42	Z42	X43	Y43	Z43	X44	Y44	Z44	X45	Y45	Z45	X46	Y46	Z46	X47	Y47	Z47	X48	Y48	Z48	X49	Y49	Z49	X50	Y50	Z50	X51	Y51	Z51	X52	Y52	Z52	X53	Y53	Z53	

197	1.96	1005.875427246094	1041.931640625	583.9296264648438	845.9149780273438	1023.536987304688	550.650390625	910.3992919921875	1095.97998046875	572.0511474609375	971.3080444335938	1277.946166992188	349.0734252929688	886.920166015625	1237.586669921875	591.4954223632812	878.7188110351562	1502.1318359375	522.78857421875	944.9993286132812	1402.798095703125	384.2772521972656	941.234619140625	1373.50537109375	611.5202026367188	783.3245239257812	1454.850463867188	508.8995361328125	751.4688110351562	1450.66650390625	389.0968017578125	669.423828125	1326.031494140625	401.8317260742188	643.5384521484375	1113.255859375	415.679443359375	713.3668212890625	1106.121948242188	495.6351928710938	727.380859375	868.4342651367188	334.4790649414062	674.0986328125	845.9036865234375	401.956298828125	643.3900756835938	997.0165405273438	400.6872253417969	763.8768310546875	683.4558715820312	306.761962890625	686.7301635742188	758.3111572265625	366.3422546386719	725.1260375976562	772.5907592773438	307.9964599609375	1065.28125	1495.438598632812	515.2745361328125	1130.462768554688	1437.303955078125	562.739501953125	1162.308715820312	1187.443115234375	652.5999755859375	1074.828491210938	1147.317138671875	623.26416015625	1207.63525390625	904.826416015625	585.8161010742188	1239.949829101562	912.8778076171875	672.2835693359375	1187.69873046875	1114.33984375	663.1674194335938	1224.06298828125	715.9568481445312	604.11474609375	1240.823486328125	794.6077270507812	586.779541015625	1263.15869140625	807.8464965820312	657.3486938476562	991.1744384765625	1683.075439453125	423.4458923339844	859.7300415039062	1648.146484375	261.6622314453125	957.9442749023438	1655.976318359375	252.9174652099609	848.3732299804688	1675.630249023438	440.8363037109375	762.9741821289062	913.9793090820312	439.4245910644531	1136.916870117188	938.6145629882812	488.7857360839844	1079.406005859375	966.83642578125	376.1239318847656	847.7699584960938	961.0352172851562	335.4153442382812	799.4498901367188	463.3282775878906	436.2780151367188	768.7022094726562	611.1790161132812	434.0709838867188	609.39306640625	158.6437530517578	807.8738403320312	684.010009765625	319.6300659179688	622.836181640625	787.4985961914062	31.20403861999512	792.5856323242188	761.8426513671875	76.42189025878906	813.2413330078125	671.6746826171875	57.92101669311523	760.588623046875	610.7343139648438	232.3959350585938	854.9425048828125	1162.88623046875	531.9192504882812	339.4317626953125	1162.2958984375	788.8164672851562	428.4442138671875	1172.70703125	32.18847274780273	394.7415771484375	1174.051635742188	401.6134033203125	338.7474975585938	1178.729248046875	33.52941513061523	159.7686614990234	1136.51953125	40.22672271728516	215.1977386474609	1226.691040039062	29.72721290588379	254.296875	1116.99560546875	33.65421295166016	439.766357421875	
198	1.97	1012.168640136719	1043.900268554688	575.2215576171875	852.0565795898438	1024.90771484375	542.7786865234375	916.75390625	1097.544311523438	563.7957763671875	975.9873657226562	1279.337280273438	340.359375	893.9871215820312	1239.199584960938	583.48291015625	885.9408569335938	1503.91552734375	515.135498046875	950.3777465820312	1404.33349609375	375.6146240234375	948.998291015625	1374.990966796875	602.9548950195312	790.2030029296875	1456.687255859375	502.1138305664062	757.0261840820312	1452.633422851562	382.7439270019531	674.7638549804688	1328.239379882812	396.4398193359375	648.5452880859375	1115.519897460938	411.0691833496094	719.4024047851562	1108.519165039062	489.9886169433594	729.6632690429688	869.268798828125	330.94189453125	677.2300415039062	847.8114013671875	399.4312438964844	647.4816284179688	999.1317749023438	396.9855041503906	764.2528076171875	683.665283203125	304.53369140625	688.5712890625	759.761474609375	364.4817504882812	726.2442626953125	773.128173828125	305.483642578125	1072.245239257812	1496.679443359375	505.3651733398438	1137.957641601562	1438.423461914062	551.9815063476562	1171.286987304688	1188.40966796875	640.9102172851562	1083.488159179688	1148.286987304688	612.8198852539062	1216.096801757812	906.1390380859375	572.42626953125	1249.579833984375	913.8777465820312	658.50927734375	1196.908447265625	1115.289794921875	650.8999633789062	1232.984252929688	717.2108154296875	589.6956787109375	1249.457885742188	796.0092163085938	572.4366455078125	1272.766357421875	808.9491577148438	642.7936401367188	997.1006469726562	1684.690795898438	413.6264038085938	863.1278076171875	1649.136474609375	254.0543212890625	961.2740478515625	1657.109375	243.7320709228516	854.6198120117188	1677.15625	433.30810546875	768.8945922851562	914.3365478515625	431.6673889160156	1142.789306640625	940.2870483398438	479.867919921875	1084.954345703125	968.1482543945312	367.1851501464844	853.1111450195312	962.1083374023438	327.5543823242188	809.3914794921875	462.6283569335938	419.69580078125	777.5269775390625	610.7698974609375	420.9317626953125	619.075927734375	169.4568328857422	800.430908203125	694.4638061523438	323.4330444335938	610.3960571289062	789.9078369140625	31.44275093078613	783.5410766601562	767.7869873046875	80.20463562011719	803.4111328125	675.3973388671875	64.85577392578125	754.5869140625	624.482177734375	243.7473602294922	845.56591796875	1166.326171875	531.5453491210938	334.2846984863281	1167.526489257812	789.5277099609375	420.5439147949219	1172.822631835938	32.12212371826172	394.8719482421875	1176.8056640625	401.1431274414062	335.1748352050781	1178.604736328125	33.57162475585938	159.8533325195312	1136.507568359375	40.38827514648438	215.2488708496094	1226.71728515625	29.88892936706543	254.3593444824219	1117.244018554688	33.54561233520508	439.9542541503906	
199	1.98	1018.200500488281	1045.877197265625	566.6895141601562	857.9659423828125	1026.442016601562	535.1170654296875	922.9022216796875	1099.2392578125	555.6503295898438	980.4371337890625	1280.792114257812	331.7427062988281	900.8556518554688	1240.952026367188	575.5429077148438	893.000732421875	1505.817260742188	507.5028991699219	955.5560913085938	1405.973999023438	366.9913635253906	956.5546264648438	1376.619995117188	594.4422607421875	796.9619140625	1458.663452148438	495.396240234375	762.3902587890625	1454.72119140625	376.4395446777344	679.916015625	1330.594116210938	391.1615905761719	653.3248901367188	1117.90087890625	406.5447387695312	725.157470703125	1111.047485351562	484.5378723144531	731.9886474609375	870.3292846679688	327.5917358398438	680.3283081054688	849.8756103515625	396.9845886230469	651.4486694335938	1001.385070800781	393.3675537109375	764.9358520507812	684.1686401367188	302.5472412109375	690.5679321289062	761.3880004882812	362.722412109375	727.5540771484375	773.9196166992188	303.1358032226562	1078.99658203125	1498.013061523438	495.4824523925781	1145.220703125	1439.636596679688	541.2559814453125	1180.02001953125	1189.46337890625	629.2205810546875	1091.933837890625	1149.297241210938	602.3292846679688	1224.464233398438	907.61865234375	558.8919067382812	1259.043823242188	914.9964599609375	644.5994262695312	1205.89892578125	1116.332885742188	638.6126708984375	1241.993896484375	718.6445922851562	574.9608154296875	1258.10107421875	797.6317138671875	557.8438720703125	1282.311767578125	810.2208251953125	628.022216796875	1002.862121582031	1686.398559570312	403.8350830078125	866.4219360351562	1650.223266601562	246.4993286132812	964.4801025390625	1658.322998046875	234.6262054443359	860.7252197265625	1678.806274414062	425.77978515625	774.5748901367188	914.922607421875	423.9781188964844	1148.334716796875	941.8416748046875	471.2003784179688	1090.297241210938	969.4993896484375	358.4685668945312	858.2672119140625	963.3876953125	319.8334350585938	819.4761352539062	462.3642272949219	403.0443725585938	786.3297729492188	610.6539306640625	407.7061157226562	629.7557983398438	180.0372924804688	792.2296142578125	705.339599609375	327.3638305664062	597.6356811523438	792.6629638671875	32.0145149230957	771.8483276367188	774.341064453125	83.83404541015625	791.422607421875	679.7525024414062	72.39735412597656	746.839599609375	639.4307861328125	254.2901000976562	835.9154663085938	1169.376953125	531.1121215820312	329.5960998535156	1172.3759765625	790.1414794921875	412.9559631347656	1172.879272460938	32.07396697998047	394.9944763183594	1179.221435546875	400.6672058105469	332.0393371582031	1178.438720703125	33.7016716003418	159.9379119873047	1136.450805664062	40.54447937011719	215.3001098632812	1226.681518554688	30.04887962341309	254.4054718017578	1117.441284179688	33.45315170288086	440.1241760253906	
200	1.99	1023.957763671875	1047.822998046875	558.3167114257812	863.6305541992188	1028.11181640625	527.6139526367188	928.8193359375	1101.02099609375	547.6165161132812	984.6786499023438	1282.303344726562	323.2088928222656	907.5218505859375	1242.814697265625	567.6607666015625	899.8633422851562	1507.78564453125	499.8683471679688	960.5327758789062	1407.694213867188	358.4404907226562	963.9070434570312	1378.364990234375	585.98046875	803.59375	1460.755737304688	488.7527465820312	767.5663452148438	1456.901977539062	370.1841430664062	684.8963012695312	1333.072021484375	386.0009765625	657.8941650390625	1120.384887695312	402.1095886230469	730.6353149414062	1113.682006835938	479.2802429199219	734.3612670898438	871.5835571289062	324.4236450195312	683.36572265625	852.0812377929688	394.5914306640625	655.2999267578125	1003.765380859375	389.8265075683594	765.918701171875	684.9431762695312	300.7979431152344	692.6893310546875	763.1708374023438	361.0354309082031	729.0642700195312	774.9351196289062	300.9404602050781	1085.528686523438	1499.439697265625	485.6333312988281	1152.247680664062	1440.951049804688	530.5689086914062	1188.491455078125	1190.609130859375	617.5372314453125	1100.15478515625	1150.361694335938	591.786376953125	1232.724243164062	909.267578125	545.2276611328125	1268.305541992188	916.23681640625	630.5771484375	1214.646240234375	1117.472045898438	626.3139038085938	1251.066162109375	720.2669067382812	559.9368896484375	1266.729736328125	799.4711303710938	543.0327758789062	1291.752319335938	811.6624145507812	613.067138671875	1008.451293945312	1688.17529296875	394.0848693847656	869.6158447265625	1651.390380859375	238.9993286132812	967.5499877929688	1659.59228515625	225.612548828125	866.6821899414062	1680.550903320312	418.2594604492188	780.0136108398438	915.749755859375	416.306640625	1153.55859375	943.2791137695312	462.7705078125	1095.432983398438	970.8779907226562	349.9589233398438	863.2398681640625	964.8714599609375	312.2300720214844	829.5768432617188	462.5509643554688	386.4098510742188	795.0301513671875	610.8511352539062	394.4741516113281	641.441650390625	190.0363922119141	783.25	716.5371704101562	331.3493347167969	584.6312866210938	795.9544067382812	32.9721565246582	757.5062255859375	781.5239868164062	87.1658935546875	777.3151245117188	684.900146484375	80.28851318359375	737.18359375	655.4366455078125	263.6957092285156	826.0435180664062	1172.136596679688	530.6419067382812	325.3269958496094	1176.889770507812	790.6790771484375	405.6710815429688	1172.902954101562	32.03612899780273	395.1037292480469	1181.372924804688	400.1972351074219	329.2804565429688	1178.2705078125	33.8533935546875	160.0126342773438	1136.391723632812	40.67779922485352	215.3443298339844	1226.62255859375	30.17558097839355	254.4364166259766	1117.606201171875	33.39098739624023	440.2732849121094	
